<svg width="16" height="35" viewBox="0 0 16 35" fill="none" xmlns="http://www.w3.org/2000/svg">
<path d="M15.4037 13.8804C13.5619 5.77208 9.21749 3.10771 8.75083 2.08833C8.2375 1.36938 7.68187 0 7.68187 0L7.67458 0.0714583V0.0904167H7.67312C7.67053 0.109303 7.66858 0.128272 7.66729 0.147292V0.169167H7.66437L7.66145 0.207083V0.245H7.65708C7.65562 0.256667 7.65562 0.27125 7.6527 0.281458V0.312083H7.64979C7.64979 0.322292 7.64979 0.333958 7.64687 0.342708V0.371875H7.64395L7.64104 0.418542V0.421458L7.62645 0.494375V0.506042H7.62499L7.62062 0.523542V0.548333H7.61625V0.580417H7.60895V0.606667H7.60166V0.637292H7.59583V0.665H7.59V0.689792H7.58124V0.710208H7.57541V0.736458H7.56958V0.756875H7.56229V0.775833H7.55791V0.797708H7.55208L7.55062 0.803542V0.818125H7.54624L7.54479 0.826875V0.835625H7.54187C7.54034 0.840357 7.53936 0.845251 7.53895 0.850208L7.52437 0.880833V0.88375C7.52146 0.886785 7.51901 0.890223 7.51708 0.893958V0.905625H7.51125V0.917292H7.50395V0.928958H7.49958V0.943542H7.49083V0.963958H7.48499V0.969792H7.47916V0.981458H7.47333V0.9975H7.46749V1.00917H7.45875V1.02521H7.45291V1.03688H7.44562V1.04854H7.44125V1.06313H7.43395V1.07479H7.42812V1.08354H7.42229V1.09521H7.41354V1.10833H7.4077V1.11708H7.40041V1.12875H7.39458V1.14479H7.38729V1.15062H7.38291V1.16229H7.37416V1.16813H7.36833V1.18271H7.3625V1.18854H7.35666V1.20021H7.34937V1.20896H7.345L7.34208 1.21479V1.22063H7.33916L7.33624 1.22646V1.22792H7.33479C7.33375 1.23176 7.33174 1.23528 7.32895 1.23812V1.2425H7.3275L7.31 1.26875V1.27021L7.29541 1.28479V1.28771L7.29104 1.29208V1.29646H7.28812L7.28375 1.30083V1.30229H7.28229L7.27791 1.30813V1.31396H7.27354L7.27062 1.31687V1.31979H7.2677C7.2677 1.32271 7.26479 1.32271 7.26479 1.32417V1.32854H7.25895L7.25604 1.33292V1.34167H7.25166V1.3475H7.24583V1.35625H7.24V1.36792H7.2327V1.35625H7.22541V1.36208H7.21958V1.37083H7.21229V1.3825H7.205V1.38833H7.19916V1.39708H7.19333V1.40292H7.1875V1.41458H7.17875V1.42042H7.17291V1.42917H7.16562V1.435H7.15979V1.44229H7.1525V1.45688H7.14958V1.46271H7.14083V1.47H7.135V1.47292H7.12916V1.47875H7.12187V1.49333H7.11604V1.49917H7.10875V1.505H7.10291V1.51375H7.09562V1.51958H7.08833V1.52542H7.0825V1.53125H7.07666V1.54583H7.07083V1.55313H7.06208V1.55896H7.05625V1.56479H7.04895V1.57354H7.04312V1.57937H7.03583V1.58958H7.02999V1.59542H7.02125V1.60417H7.01833V1.61H7.0125V1.61583H7.0052V1.62167H6.99937V1.63042H6.99208V1.63625H6.9877L6.98625 1.63917V1.64208H6.98333L6.9775 1.64792L6.97166 1.65229V1.66104H6.96583V1.66833H6.96V1.67417H6.95416V1.68H6.94979L6.94541 1.68438V1.68875H6.9425L6.93958 1.69167V1.69604H6.93666C6.92937 1.70479 6.92645 1.71063 6.91625 1.71938C6.88966 1.73751 6.86476 1.75801 6.84187 1.78062L6.80979 1.80542V1.80687H6.80833C6.78424 1.82611 6.75993 1.84507 6.73541 1.86375V1.86521L6.62895 1.95562V1.95417H6.62604C6.54291 2.02271 6.45541 2.1 6.35479 2.18604V2.1875H6.35333C6.10541 2.40333 5.81374 2.68042 5.48562 3.01583L5.46375 3.03771L5.45791 3.04354C3.47458 5.09542 0.349371 9.37125 0.0183292 16.2808C-0.0108375 16.8525 -0.00354586 17.4081 0.0285375 17.9492V17.9623C0.187496 20.685 1.04208 23.0096 2.11104 24.8981V24.8996C2.53687 25.6521 2.99625 26.336 3.46145 26.9485V26.95C5.06854 29.0719 6.70916 30.329 7.1277 30.6338C7.76937 32.1256 7.71104 34.6865 7.71104 34.6865L8.6502 35C8.6502 35 8.45916 32.5194 8.7275 31.3221C8.81062 30.9473 9.00749 30.6279 9.23645 30.3567C9.64272 30.0671 10.0309 29.753 10.3987 29.416C10.425 29.3883 10.4396 29.3635 10.4629 29.3373C12.6796 27.2694 16.8242 22.1769 15.4037 13.8804Z" fill="#F8EFD4"/>
</svg>
