<svg width="40" height="45" viewBox="0 0 40 45" fill="none" xmlns="http://www.w3.org/2000/svg">
<path d="M38.3317 30.3694C38.2519 30.2803 36.3511 28.179 33.9417 28.1605C32.6795 28.1605 31.5509 28.6858 30.5727 29.7531C29.1378 31.3161 26.2105 33.1871 22.6837 33.3189C19.7174 33.4285 16.9572 32.3017 14.4735 29.9684C11.4219 27.1024 10.4733 22.5138 12.0567 18.2797C13.6048 14.1403 17.1651 11.5675 21.5811 11.3986L21.6627 11.3912C21.7073 11.3856 25.9358 10.9123 29.691 14.2647C30.0065 14.6081 31.8331 16.4866 34.2851 16.5441C35.8128 16.5775 37.2291 15.9204 38.4988 14.5858C39.6163 13.4126 40.1137 12.0947 39.9782 10.6654C39.6924 7.67688 36.6259 5.32688 36.2101 5.02246C35.8165 4.68091 32.7241 2.09331 27.9015 0.764249C23.2238 -0.525836 15.9845 -0.819122 8.06765 5.12455C7.70784 5.41004 7.36275 5.71362 7.03373 6.03411C6.51398 6.4202 6.06292 6.89169 5.70466 7.43185C1.82461 11.8792 -0.209914 17.6408 0.0171512 23.5384C0.401392 35.2012 9.79024 40.7884 10.4975 41.1912C10.9838 41.5068 15.8917 44.551 22.5537 44.5492C26.463 44.5492 30.9773 43.5004 35.5567 40.239C36.017 39.9828 38.7383 38.3605 39.4603 35.5613C39.8873 33.9018 39.5383 32.1922 38.4171 30.4808L38.3317 30.3694ZM6.90193 34.0262C6.90193 32.0029 8.54842 30.3564 10.5717 30.3564C12.595 30.3564 14.2415 32.001 14.2415 34.0262C14.2415 36.0495 12.595 37.6959 10.5717 37.6959C8.54842 37.6959 6.90193 36.0495 6.90193 34.0262ZM7.15995 8.67553C7.59802 8.16507 7.99712 7.75113 8.32567 7.43185C8.924 7.03377 9.6266 6.82132 10.3453 6.82115C12.3686 6.82115 14.015 8.46763 14.015 10.4909C14.015 12.5142 12.3686 14.1626 10.3453 14.1626C8.32196 14.1626 6.67547 12.5161 6.67547 10.4928C6.67547 9.83197 6.85367 9.21198 7.15995 8.67739V8.67553ZM22.3198 1.85386C29.6594 1.85386 34.6768 6.19003 34.9905 6.46847L35.0703 6.53158C35.85 7.08845 37.9141 8.94654 38.096 10.8455C38.1777 11.716 37.8621 12.5124 37.1308 13.2827C36.2453 14.2108 35.3061 14.6786 34.339 14.6526C32.5496 14.6173 31.1036 13.0061 31.072 12.9727L30.994 12.891C26.7395 9.06163 22.0284 9.44773 21.4715 9.50898C19.5156 9.57614 17.6018 10.0959 15.8806 11.0274C16.0095 9.67418 15.6389 8.32055 14.8389 7.22162C14.0388 6.1227 12.8644 5.35437 11.537 5.06144C15.4406 2.69102 19.103 1.85386 22.318 1.85386H22.3198ZM4.93618 11.768C5.22424 12.9869 5.91478 14.0731 6.89625 14.8511C7.87772 15.6291 9.09281 16.0536 10.3453 16.0559C10.5717 16.0559 10.7908 16.0374 11.0098 16.0114C10.734 16.531 10.4922 17.068 10.2859 17.6189C8.89368 21.3369 9.19068 25.3037 10.9522 28.4853C10.826 28.476 10.6998 28.4667 10.5717 28.4667C9.22529 28.4691 7.92537 28.9594 6.91273 29.8468C5.9001 30.7342 5.24339 31.9585 5.06426 33.293C3.11342 30.3813 2.01999 26.9801 1.90866 23.4772C1.75955 19.3626 2.81083 15.2936 4.93432 11.7662L4.93618 11.768ZM37.6301 35.0824C37.0732 37.2616 34.6323 38.5907 34.61 38.6018L34.5023 38.6686C22.8322 47.0198 11.9732 39.9067 11.5184 39.6004L11.4516 39.5596C11.4305 39.5474 11.4094 39.535 11.3885 39.5225C12.7904 39.3128 14.0595 38.576 14.9368 37.4625C15.814 36.349 16.2332 34.9426 16.1089 33.5305C18.1953 34.7185 20.445 35.2958 22.7542 35.2123C26.8639 35.0582 30.285 32.866 31.9649 31.0358C32.5718 30.3749 33.2085 30.052 33.9102 30.052H33.9195C35.3339 30.0594 36.6296 31.3291 36.8765 31.5852C37.6579 32.8066 37.9122 33.9816 37.6301 35.0824Z" fill="#F8EFD4"/>
</svg>
