<svg width="41" height="36" viewBox="0 0 41 36" fill="none" xmlns="http://www.w3.org/2000/svg">
<path d="M20.02 21.3823C21.9916 21.3823 23.59 19.784 23.59 17.8123C23.59 15.8407 21.9916 14.2423 20.02 14.2423C18.0483 14.2423 16.45 15.8407 16.45 17.8123C16.45 19.784 18.0483 21.3823 20.02 21.3823Z" fill="#F8EFD4"/>
<path d="M10.024 24.9102L9.234 24.7082C3.366 23.2262 0 20.7062 0 17.8042C0 14.9002 3.368 12.3822 9.234 10.9002L10.024 10.7002L10.246 11.4822C10.8391 13.5296 11.599 15.525 12.518 17.4482L12.688 17.8042L12.518 18.1602C11.598 20.0862 10.836 22.0822 10.246 24.1302L10.024 24.9102ZM8.87 12.7202C4.412 13.9762 1.674 15.8922 1.674 17.8042C1.674 19.7122 4.41 21.6302 8.87 22.8842C9.416 21.1482 10.076 19.4502 10.84 17.8042C10.0705 16.1555 9.41232 14.457 8.87 12.7202ZM30.014 24.9102L29.794 24.1262C29.1993 22.0784 28.4388 20.0825 27.52 18.1582L27.35 17.8042L27.52 17.4462C28.44 15.5242 29.198 13.5262 29.794 11.4782L30.014 10.6982L30.804 10.8982C36.674 12.3802 40.038 14.8982 40.038 17.8042C40.038 20.7082 36.672 23.2262 30.804 24.7082L30.014 24.9102ZM29.194 17.8042C29.994 19.5362 30.66 21.2402 31.168 22.8842C35.628 21.6302 38.366 19.7122 38.366 17.8042C38.366 15.8922 35.63 13.9782 31.168 12.7202C30.6226 14.4565 29.9631 16.1548 29.194 17.8042Z" fill="#F8EFD4"/>
<path d="M8.85806 12.7123L8.63806 11.9323C6.98606 6.11626 7.48606 1.95026 10.0121 0.498263C12.4821 -0.931737 16.4561 0.758263 20.6181 5.02826L21.1861 5.61226L20.6181 6.19426C19.1398 7.73164 17.7887 9.3864 16.5781 11.1423L16.3521 11.4663L15.9601 11.4983C13.8312 11.6655 11.7196 12.0059 9.64606 12.5163L8.85806 12.7123ZM12.0221 1.65426C11.5741 1.65426 11.1781 1.75226 10.8441 1.94426C9.18806 2.89826 8.89606 6.22026 10.0361 10.7043C11.8181 10.3103 13.6161 10.0283 15.4281 9.87026C16.4771 8.38237 17.6215 6.96406 18.8541 5.62426C16.2481 3.09026 13.7881 1.65426 12.0221 1.65426ZM28.0161 35.6223C25.6401 35.6223 22.5881 33.8303 19.4201 30.5783L18.8541 29.9963L19.4201 29.4163C20.8985 27.8764 22.2503 26.2197 23.4621 24.4623L23.6861 24.1423L24.0741 24.1043C26.2036 23.94 28.3161 23.6009 30.3901 23.0903L31.1801 22.8903L31.4021 23.6723C33.0461 29.4843 32.5481 33.6563 30.0261 35.1083C29.4137 35.4554 28.7199 35.6328 28.0161 35.6223ZM21.1861 29.9823C23.7901 32.5163 26.2521 33.9543 28.0161 33.9543C28.4661 33.9543 28.8621 33.8543 29.1941 33.6643C30.8521 32.7083 31.1461 29.3803 30.0021 24.8963C28.2221 25.2923 26.4221 25.5763 24.6061 25.7343C23.5615 27.2245 22.419 28.6436 21.1861 29.9823Z" fill="#F8EFD4"/>
<path d="M31.18 12.7123L30.39 12.5143C28.3162 12.0024 26.2037 11.6619 24.074 11.4963L23.686 11.4623L23.462 11.1383C22.2519 9.38146 20.9001 7.7266 19.42 6.19029L18.854 5.60829L19.42 5.02829C23.58 0.760287 27.552 -0.929713 30.026 0.498287C32.55 1.95229 33.052 6.11829 31.402 11.9323L31.18 12.7123ZM24.606 9.87029C26.514 10.0403 28.322 10.3263 30.002 10.7043C31.144 6.22029 30.852 2.89829 29.194 1.94229C27.546 0.988286 24.444 2.44829 21.186 5.62429C22.418 6.96429 23.562 8.38029 24.606 9.87029ZM12.022 35.6223C11.3183 35.6323 10.6246 35.4549 10.012 35.1083C7.48603 33.6563 6.98603 29.4863 8.63603 23.6723L8.85203 22.8903L9.64203 23.0903C11.57 23.5763 13.694 23.9183 15.958 24.1043L16.346 24.1423L16.572 24.4623C17.78 26.2183 19.132 27.8763 20.612 29.4163L21.18 29.9963L20.612 30.5783C17.446 33.8323 14.394 35.6223 12.022 35.6223ZM10.036 24.8983C8.89603 29.3823 9.18803 32.7103 10.844 33.6663C12.494 34.6063 15.586 33.1563 18.854 29.9823C17.6219 28.6421 16.4776 27.2238 15.428 25.7363C13.6142 25.5759 11.813 25.2959 10.036 24.8983Z" fill="#F8EFD4"/>
<path d="M20.0201 25.9483C18.6461 25.9483 17.2361 25.8903 15.8201 25.7723L15.4281 25.7383L15.2021 25.4143C14.4036 24.2661 13.6523 23.0858 12.9501 21.8763C12.2531 20.6636 11.6052 19.4232 11.0081 18.1583L10.8401 17.8043L11.0081 17.4463C11.6061 16.1823 12.2521 14.9423 12.9501 13.7303C13.6441 12.5383 14.4021 11.3463 15.2021 10.1903L15.4281 9.87031L15.8201 9.83431C18.6139 9.60031 21.4223 9.60031 24.2161 9.83431L24.6041 9.87231L24.8301 10.1923C26.4297 12.4898 27.8346 14.9169 29.0301 17.4483L29.1961 17.8063L29.0301 18.1603C27.8379 20.6934 26.4328 23.1208 24.8301 25.4163L24.6041 25.7403L24.2161 25.7743C22.8041 25.8883 21.3921 25.9483 20.0201 25.9483ZM16.3521 24.1403C18.8221 24.3263 21.2181 24.3263 23.6861 24.1403C25.0639 22.1227 26.2886 20.0048 27.3501 17.8043C26.2924 15.6018 25.0675 13.4836 23.6861 11.4683C21.245 11.2803 18.7931 11.2803 16.3521 11.4683C14.9696 13.4829 13.7446 15.6012 12.6881 17.8043C13.7518 20.0036 14.9765 22.1214 16.3521 24.1403Z" fill="#F8EFD4"/>
</svg>
