<svg width="41" height="41" viewBox="0 0 41 41" fill="none" xmlns="http://www.w3.org/2000/svg">
<path d="M35.9555 0.400024H4.84435C2.3999 0.400024 0.399902 2.40002 0.399902 4.84447V35.9556C0.399902 38.4022 2.3999 40.4 4.84435 40.4H20.3999V24.8445H15.9555V19.3445H20.3999V14.7889C20.3999 9.98002 23.0932 6.60225 28.7688 6.60225L32.7755 6.60669V12.3956H30.1155C27.9066 12.3956 27.0666 14.0534 27.0666 15.5911V19.3467H32.7732L31.511 24.8445H27.0666V40.4H35.9555C38.3999 40.4 40.3999 38.4022 40.3999 35.9556V4.84447C40.3999 2.40002 38.3999 0.400024 35.9555 0.400024Z" fill="#F8EFD4"/>
</svg>
