<svg width="30" height="33" viewBox="0 0 30 33" fill="none" xmlns="http://www.w3.org/2000/svg">
<path d="M29.0926 16.25C29.091 15.3037 28.7761 14.3845 28.1971 13.6359C27.6181 12.8873 26.8077 12.3515 25.8921 12.1119L30 0H9.64347L13.7623 12.1504C12.8732 12.4096 12.0919 12.95 11.5357 13.6906C10.9795 14.4312 10.6784 15.3321 10.6773 16.2583C10.6789 16.9411 10.8436 17.6138 11.1576 18.2202C11.4715 18.8266 11.9257 19.3493 12.4824 19.7448C12.0438 20.363 11.5446 20.936 10.9921 21.455C9.97588 22.4229 8.78664 23.191 7.48642 23.7193C6.33984 22.9453 5.84354 21.5801 6.29173 20.3565C7.26709 20.0536 8.10179 19.4115 8.64476 18.5464C9.18774 17.6814 9.40313 16.6506 9.25195 15.6405C9.10077 14.6304 8.59301 13.7078 7.82056 13.0396C7.0481 12.3715 6.06199 12.0019 5.04067 11.9978C3.90606 11.9993 2.81834 12.4506 2.01605 13.2529C1.21376 14.0552 0.762397 15.1429 0.760941 16.2775C0.760941 17.4434 1.23799 18.5129 2.00238 19.2773C1.93639 19.4107 1.86902 19.5454 1.80166 19.6884C1.16238 21.0068 0.436491 22.4971 0.158783 24.1688C-0.395258 27.5123 0.512104 30.1959 2.70077 31.7151C3.88533 32.5505 5.29999 32.9977 6.74953 32.995C9.26128 32.995 11.8115 31.7343 14.2765 30.5107C16.0349 29.6419 17.8496 28.7345 19.6355 28.2946C20.2953 28.1324 20.9827 28.0375 21.7086 27.9316C23.1797 27.7213 24.6988 27.5027 26.064 26.7081C26.8436 26.2613 27.5161 25.6495 28.0343 24.9154C28.5525 24.1813 28.9038 23.3428 29.0638 22.4586C29.303 21.092 29.0638 19.7173 28.4534 18.5129C28.863 17.853 29.0926 17.0804 29.0926 16.2487V16.25ZM27.2298 16.25C27.2298 17.5767 26.1506 18.6559 24.8239 18.6559C24.3243 18.6545 23.8375 18.4979 23.4308 18.2077C23.0241 17.9175 22.7177 17.5081 22.5539 17.0362C22.3901 16.5642 22.377 16.053 22.5164 15.5732C22.6559 15.0935 22.941 14.6689 23.3323 14.3583L23.3419 14.3487C23.4189 14.291 23.5041 14.2332 23.5893 14.1768C23.5893 14.1768 23.6003 14.1768 23.6003 14.1672C23.6388 14.148 23.676 14.1191 23.7145 14.0985C23.7241 14.0985 23.7337 14.0902 23.7433 14.0902C23.7818 14.071 23.8299 14.0517 23.8767 14.0325C23.9248 14.0132 23.9729 13.9954 24.0114 13.9761C24.021 13.9761 24.0293 13.9665 24.0389 13.9665C24.0774 13.9569 24.1159 13.9376 24.1544 13.928C24.164 13.928 24.1819 13.9184 24.1929 13.9184C24.2396 13.9088 24.2781 13.8991 24.3262 13.8909H24.3359L24.4788 13.8606C24.4885 13.8606 24.5063 13.8606 24.5173 13.851C24.5558 13.851 24.5929 13.8414 24.6314 13.8414H24.6796C24.7277 13.8414 24.7758 13.8318 24.8322 13.8318H24.9559C24.9944 13.8318 25.0246 13.8318 25.0618 13.8414H25.081C25.1566 13.851 25.2336 13.8606 25.3106 13.8799C25.8529 13.9961 26.3392 14.2945 26.6883 14.7255C27.0375 15.1565 27.2286 15.694 27.2298 16.2487V16.25ZM12.3092 1.91096H27.3357L23.8863 12.0844C23.7433 12.1119 23.6003 12.16 23.4574 12.2081L19.8279 4.8049L16.1875 12.16C16.0445 12.1133 15.8905 12.0844 15.7379 12.0555L12.3092 1.90959V1.91096ZM19.1392 15.4183C18.9634 14.5365 18.5118 13.7334 17.8496 13.1251L19.8265 9.13274L21.8227 13.2117C21.2316 13.8029 20.8013 14.559 20.6294 15.4183H19.1378H19.1392ZM14.3535 13.9088C14.4002 13.8991 14.4387 13.8895 14.4869 13.8813H14.5144C14.5542 13.8703 14.5913 13.8703 14.6298 13.8606H14.6683C14.7068 13.8606 14.7357 13.851 14.7728 13.851H15.1454C15.1839 13.851 15.2127 13.8606 15.2416 13.8606C15.2609 13.8606 15.2691 13.8606 15.2897 13.8703C15.3269 13.8799 15.3557 13.8799 15.3942 13.8895C15.4038 13.8895 15.4135 13.8895 15.4327 13.8991L15.5661 13.9266H15.5757C15.6142 13.9376 15.6527 13.9473 15.6898 13.9665C15.6994 13.9665 15.709 13.9761 15.7283 13.9761C15.7572 13.9858 15.7957 13.9954 15.8245 14.0132C15.8342 14.0132 15.8438 14.0229 15.852 14.0229C15.8905 14.0421 15.929 14.0517 15.9675 14.071H15.9771C16.0213 14.0877 16.0629 14.1103 16.1009 14.1384H16.1105C16.149 14.1576 16.1875 14.1851 16.226 14.2043C16.2356 14.2043 16.2356 14.214 16.2438 14.214C16.2823 14.2332 16.3126 14.2621 16.3497 14.2813L16.3593 14.291C16.4734 14.3762 16.5793 14.4724 16.6838 14.5673L16.6934 14.5769C17.1191 15.0254 17.3555 15.6207 17.3533 16.239C17.3322 16.8634 17.0693 17.4551 16.6202 17.8894C16.171 18.3236 15.5708 18.5663 14.946 18.5663C14.3213 18.5663 13.721 18.3236 13.2719 17.8894C12.8227 17.4551 12.5599 16.8634 12.5388 16.239C12.5373 15.7037 12.7152 15.1832 13.0441 14.7608C13.3731 14.3384 13.8341 14.0385 14.3535 13.9088ZM4.95268 13.8414C6.28073 13.8414 7.35994 14.922 7.35994 16.2487C7.35994 17.5753 6.28073 18.6559 4.95405 18.6559C3.62738 18.6559 2.54542 17.5767 2.54542 16.25C2.54542 14.9234 3.62601 13.8414 4.95268 13.8414ZM27.1734 22.1245C27.0648 22.7357 26.8226 23.3154 26.4643 23.8222C26.1059 24.3291 25.6402 24.7507 25.1002 25.0569C24.0582 25.6591 22.7782 25.8502 21.4309 26.0413C20.6734 26.1384 19.921 26.2719 19.1763 26.4414C17.1897 26.9294 15.2801 27.8849 13.4269 28.8019C11.0568 29.976 8.82134 31.084 6.74953 31.084C5.68712 31.0906 4.65011 30.7594 3.78823 30.1382C1.68618 28.6864 1.79066 25.9643 2.0395 24.474C2.26909 23.0786 2.90837 21.7712 3.52015 20.5188C3.55864 20.4431 3.58751 20.3758 3.62601 20.2988C3.83497 20.3758 4.05494 20.4335 4.28453 20.472C3.92159 22.4971 4.95268 24.5881 6.95988 25.6206L7.32282 25.8117L7.71326 25.6687C9.38501 25.0762 10.933 24.1111 12.2996 22.8215C13.0542 22.1179 13.7212 21.3258 14.2861 20.4624C14.5061 20.4995 14.7261 20.5091 14.946 20.5091C15.8917 20.5069 16.8101 20.192 17.5581 19.6133C18.3062 19.0347 18.8417 18.2248 19.0814 17.31H20.6858C20.9239 18.2262 21.4594 19.0375 22.2084 19.6164C22.9573 20.1954 23.8773 20.5094 24.8239 20.5091C25.6158 20.5091 26.3499 20.2892 26.9823 19.918C27.2298 20.6329 27.3068 21.3794 27.1734 22.1245Z" fill="#F8EFD4"/>
</svg>
