<svg width="32" height="30" viewBox="0 0 32 30" fill="none" xmlns="http://www.w3.org/2000/svg">
<path d="M21.9253 20.9367C23.072 20.8379 23.9591 19.8295 23.9024 18.6248C23.8405 17.42 22.8532 16.4525 21.6498 16.4525H21.5694C20.9722 16.4738 20.4079 16.7314 20.0005 17.1687C19.5932 17.6059 19.3762 18.1871 19.3972 18.7843C19.4367 19.4156 19.6951 19.9297 20.0483 20.304C18.6669 22.9903 16.5936 24.9649 13.4512 26.6243C11.3383 27.7289 9.10675 28.1454 6.93452 27.8502C5.11817 27.5931 3.69726 26.7825 2.82731 25.4789C1.52503 23.5031 1.4064 21.3717 2.49119 19.239C3.28206 17.6968 4.46703 16.5725 5.25789 16.0189C5.01914 15.3569 4.83401 14.6767 4.70429 13.9851C-1.14413 18.174 -0.548349 23.8998 1.22845 26.6059C2.55183 28.5804 5.25789 29.8431 8.21967 29.8431C9.01053 29.8431 9.84093 29.7851 10.6489 29.5874C15.7856 28.6002 19.6753 25.5198 21.9068 20.9776L21.9253 20.9367ZM28.9745 15.9991C25.9165 12.4033 21.4112 10.4288 16.2759 10.4288H15.6037C15.2702 9.69859 14.5004 9.24385 13.6292 9.24385H13.5698C12.3269 9.24385 11.3581 10.3115 11.3989 11.5545C11.4385 12.7381 12.4455 13.7267 13.6502 13.7267H13.7478C14.1751 13.7102 14.5886 13.5711 14.939 13.3259C15.2894 13.0807 15.5617 12.7398 15.7236 12.344H16.4552C19.4987 12.344 22.38 13.2324 25.007 14.9697C27.0198 16.2944 28.4631 18.0316 29.2737 20.1063C29.9828 21.804 29.9446 23.4635 29.2144 24.8475C28.0874 27.0185 26.1907 28.1652 23.6836 28.1652C22.1032 28.1652 20.5637 27.6709 19.7728 27.3163C19.2983 27.7091 18.5075 28.3616 17.9354 28.757C19.6727 29.5453 21.431 30 23.1287 30C26.9802 30 29.8431 27.8291 30.9306 25.7346C32.1142 23.3647 32.0167 19.3761 28.993 15.9596L28.9745 15.9991ZM8.55446 21.6459C8.59401 22.8308 9.59972 23.8181 10.8058 23.8181H10.8849C11.1817 23.8114 11.4741 23.7454 11.745 23.6239C12.0159 23.5024 12.2598 23.328 12.4622 23.1108C12.6646 22.8936 12.8216 22.6381 12.9237 22.3594C13.0259 22.0806 13.0712 21.7842 13.0571 21.4877C13.0571 20.3014 12.0303 19.3168 10.8256 19.3168H10.7465C10.6674 19.3168 10.5488 19.3168 10.4486 19.355C8.81017 16.5896 8.11817 13.6252 8.37652 10.4288C8.53469 8.01933 9.32555 5.92487 10.7451 4.18761C11.9314 2.70606 14.163 1.9732 15.6841 1.93629C19.9495 1.85589 21.7276 7.17048 21.8647 9.28339L23.8392 9.87654C23.3844 3.39675 19.3576 0 15.5061 0C11.8893 0 8.55446 2.62698 7.21 6.47847C5.37388 11.6125 6.57863 16.5514 8.83126 20.5018C8.63355 20.7588 8.51492 21.2122 8.55446 21.6459Z" fill="#F8EFD4"/>
</svg>
