<svg width="22" height="30" viewBox="0 0 22 30" fill="none" xmlns="http://www.w3.org/2000/svg">
<path d="M0.717494 19.5904L3.67372 0.576775C3.69492 0.435736 3.7601 0.304986 3.85995 0.203153C3.95981 0.101319 4.08926 0.0335959 4.22985 0.00963223C4.37045 -0.0143314 4.51502 0.0066865 4.64297 0.0696917C4.77093 0.132697 4.87573 0.234475 4.94246 0.360527L8.12118 6.32423L0.717494 19.5904ZM21.7098 24.2053L18.8973 6.70547C18.8781 6.5818 18.8248 6.46593 18.7434 6.3708C18.6621 6.27567 18.5559 6.20503 18.4367 6.16677C18.3175 6.12852 18.1901 6.12415 18.0686 6.15416C17.947 6.18418 17.8363 6.24738 17.7486 6.33673L0 24.2066L9.81992 29.7403C10.123 29.9106 10.4648 30 10.8124 30C11.16 30 11.5018 29.9106 11.8049 29.7403L21.7098 24.2053ZM13.7299 8.93421L11.4549 4.58174C11.3975 4.47229 11.3113 4.38062 11.2055 4.31666C11.0997 4.25271 10.9785 4.2189 10.8549 4.2189C10.7313 4.2189 10.6101 4.25271 10.5043 4.31666C10.3986 4.38062 10.3123 4.47229 10.2549 4.58174L0.267498 22.4803L13.7299 8.93421Z" fill="#F8EFD4"/>
</svg>
