<svg width="33" height="33" viewBox="0 0 33 33" fill="none" xmlns="http://www.w3.org/2000/svg">
<path d="M15.9108 4.44033e-05C15.6688 4.44033e-05 15.4845 0.0014194 15.4185 0.00966939C15.2518 0.026337 15.085 0.0414626 14.918 0.0550443C10.2332 0.475794 5.84262 3.00442 3.06225 6.89154C1.52462 9.02489 0.525033 11.498 0.148506 14.1006C0.0165007 15.0068 0 15.2749 0 16.5028C0 17.7306 0.0165007 18.0001 0.148506 18.9063C1.04504 25.102 5.45623 30.3078 11.4363 32.2369C12.5075 32.5806 13.6364 32.8171 14.9207 32.9587C15.4199 33.0137 17.5815 33.0137 18.082 32.9587C20.2972 32.714 22.1756 32.1654 24.0264 31.2208C24.311 31.075 24.366 31.0365 24.3275 31.0035C24.3 30.9856 23.09 29.3631 21.6393 27.401L19.0005 23.837L15.6949 18.9448C14.5951 17.3079 13.485 15.678 12.3645 14.0553C12.3521 14.0525 12.3398 16.2264 12.3329 18.8815C12.3233 23.529 12.3191 23.7146 12.2614 23.8246C12.2053 23.9535 12.1048 24.058 11.9781 24.1189C11.875 24.1698 11.7856 24.1794 11.2975 24.1794H10.7378L10.5893 24.0859C10.4975 24.0284 10.4229 23.9471 10.3734 23.8508L10.3047 23.705L10.3129 17.2384L10.3226 10.769L10.4216 10.6425C10.4892 10.5635 10.5702 10.4969 10.6608 10.4459C10.7928 10.3813 10.8451 10.3758 11.4033 10.3758C12.0606 10.3758 12.1706 10.4005 12.3411 10.5875C12.3893 10.6398 14.1796 13.3362 16.3219 16.5839C18.4909 19.871 20.6612 23.1573 22.8328 26.4426L25.4454 30.4013L25.5774 30.3146C26.8353 29.4789 27.9757 28.4786 28.9683 27.3405C31.0471 24.9611 32.3954 22.0327 32.8515 18.9063C32.9835 17.9988 33 17.732 33 16.5028C33 15.2749 32.9835 15.0068 32.8515 14.1006C31.955 7.90491 27.5451 2.69917 21.565 0.770043C20.4469 0.414583 19.2956 0.173638 18.1288 0.0509193C17.3904 0.0159756 16.6513 -0.000987781 15.9122 4.44033e-05H15.9108ZM21.5059 9.92341C21.983 9.92341 22.0669 9.93028 22.1742 9.98803C22.251 10.0268 22.3193 10.0804 22.3753 10.1458C22.4312 10.2112 22.4736 10.287 22.5001 10.3689C22.5248 10.4514 22.5317 12.2458 22.5248 16.2869L22.5166 22.0866L21.4935 20.5191L20.4677 18.9516V14.7359C20.4677 12.0107 20.4815 10.4775 20.4994 10.4047C20.5224 10.3187 20.5627 10.2382 20.6178 10.1683C20.6728 10.0983 20.7416 10.0403 20.8197 9.99766C20.9517 9.92891 20.9985 9.92341 21.5073 9.92341H21.5059Z" fill="#F8EFD4"/>
</svg>
