<svg width="52" height="52" viewBox="0 0 52 52" fill="none" xmlns="http://www.w3.org/2000/svg">
<rect width="52" height="52" rx="5" fill="white"/>
<path d="M2 5.438C2 3.539 3.578 2 5.525 2H46.475C48.422 2 50 3.539 50 5.438V46.562C50 48.461 48.422 50 46.475 50H5.525C3.578 50 2 48.461 2 46.562V5.438ZM16.829 42.182V20.507H9.626V42.182H16.829ZM13.229 17.546C15.74 17.546 17.303 15.884 17.303 13.802C17.258 11.675 15.743 10.058 13.277 10.058C10.811 10.058 9.2 11.678 9.2 13.802C9.2 15.884 10.763 17.546 13.181 17.546H13.229V17.546ZM27.953 42.182V30.077C27.953 29.429 28.001 28.781 28.193 28.319C28.712 27.026 29.897 25.685 31.889 25.685C34.496 25.685 35.537 27.671 35.537 30.587V42.182H42.74V29.75C42.74 23.09 39.188 19.994 34.448 19.994C30.626 19.994 28.913 22.094 27.953 23.573V23.648H27.905C27.9209 23.623 27.9369 23.598 27.953 23.573V20.507H20.753C20.843 22.541 20.753 42.182 20.753 42.182H27.953Z" fill="#0A66C2"/>
</svg>
