<svg width="44" height="30" viewBox="0 0 44 30" fill="none" xmlns="http://www.w3.org/2000/svg">
<path d="M43.6205 21.1416C43.4952 20.1256 42.9804 19.2443 42.0863 18.519C42.0752 18.5055 42.063 18.493 42.0497 18.4815L42.0045 18.4491L41.99 18.4389L41.5153 18.098L41.4991 18.0861L41.4386 18.0434C41.4164 18.0305 41.3926 18.0205 41.3678 18.0136C39.8661 17.1195 37.3799 16.4931 33.576 17.8355C32.6683 16.3081 32.5651 15.0842 33.1728 13.2091C33.2811 12.8827 33.1805 12.667 32.8566 12.5273C32.2055 12.2503 31.3139 12.3917 30.6815 12.5588C30.3866 12.6355 30.2093 12.8026 30.1531 13.0557C29.7525 14.9308 28.5882 16.6439 27.4623 18.2974L27.3959 18.3946C26.7021 16.9235 26.8461 15.784 27.3294 14.3563C27.4257 14.0717 27.3498 13.8824 27.0831 13.741C26.3381 13.3566 25.2207 13.6208 24.7758 13.752C24.2116 13.9165 23.6065 15.4413 22.9306 17.267C22.7601 17.7264 22.6135 18.1193 22.5257 18.3025C22.3169 18.7287 22.1175 19.2145 21.9061 19.7302C21.4288 20.897 20.891 22.2104 20.1222 23.0354C19.8426 22.4175 20.2824 21.4433 20.7094 20.4981C21.2149 19.3807 21.6922 18.3247 21.1424 17.6505C21.0555 17.5439 20.9476 17.4563 20.8255 17.393C20.7034 17.3296 20.5697 17.292 20.4324 17.2823C20.2534 17.2687 20.0737 17.2979 19.9083 17.3676C19.9654 16.886 19.9679 16.5059 19.8273 16.0465C19.6262 15.391 19.1037 15.0237 18.3843 15.0433C16.7462 15.091 15.3603 16.3115 14.485 17.3275C13.902 18.0093 12.6099 18.5293 11.4755 18.9852C11.0272 19.1753 10.601 19.3458 10.2456 19.5162C9.6788 19.0372 8.95859 18.554 8.20003 18.0434C6.06925 16.6133 3.65464 14.9913 3.57111 12.7923C3.45179 9.54416 7.15083 7.24035 10.3794 5.59624C12.8264 4.35186 14.9538 3.52682 16.8834 3.07595C19.5938 2.44268 21.8831 2.57052 23.6866 3.45437C24.6736 3.93764 25.1355 4.98854 24.8423 6.06927C24.0752 8.87765 20.897 10.8022 18.1789 11.6681C16.5416 12.1897 15.1481 12.4079 13.9174 12.3363C12.3747 12.2468 11.1149 11.4729 10.5763 11.1431C10.49 11.0842 10.3987 11.0328 10.3035 10.9897L10.2788 10.9837C10.2301 10.9716 10.1789 10.9731 10.1309 10.9881C10.0829 11.0032 10.0401 11.0311 10.0069 11.0689C9.89614 11.2011 9.93534 11.4099 9.9754 11.5156C10.4996 12.8852 11.582 13.7503 13.192 14.087C13.719 14.1925 14.2553 14.2436 14.7927 14.2396C18.5608 14.2396 23.3687 12.067 25.1347 10.278C26.339 9.05919 27.216 7.80629 27.5791 5.64567C27.9584 3.38278 26.4242 1.81026 24.8611 1.08579C21.0623 -0.667417 16.7479 0.0255143 13.7972 0.91533C10.3453 1.95601 6.77411 3.84814 4.00068 6.10848C0.581195 8.89299 -0.654661 11.4781 0.325501 13.8006C1.33208 16.1811 3.78675 17.6701 6.16044 19.1105C6.92753 19.575 7.65711 20.0174 8.31424 20.4742C8.11651 20.5705 7.91451 20.6686 7.7091 20.7666C5.71639 21.7323 3.45605 22.819 2.2023 24.6148C1.29203 25.9231 1.12156 27.2254 1.69602 28.486C2.00286 29.1568 2.54834 29.6119 3.30604 29.8386C3.7002 29.9503 4.1084 30.0045 4.51803 29.9997C5.99339 29.9997 7.61705 29.4031 8.5009 28.8516C10.0623 27.8715 11.074 26.5555 11.5087 24.9404C11.8957 23.5034 11.8028 22.0757 11.2402 20.8015L13.1537 19.8367C12.2306 22.905 12.938 24.7375 13.7154 25.7484C14.0017 26.1208 14.5182 26.345 15.0953 26.3552C15.6723 26.3654 16.2033 26.1481 16.5033 25.7782C17.0709 25.075 17.4903 24.2525 17.8764 23.4301C17.8559 23.967 17.8815 24.5108 18.0647 24.9719C18.2292 25.387 18.5002 25.6623 18.8497 25.768C19.2213 25.8813 19.6568 25.7859 20.0762 25.4995C21.9658 24.2065 23.2579 21.1032 24.296 18.6085C24.4434 18.254 24.5849 17.913 24.7221 17.5943C24.979 18.5134 25.3363 19.4015 25.7875 20.2424C25.8881 20.4248 25.8796 20.5049 25.7432 20.6549C25.5378 20.8799 25.2514 21.1518 24.948 21.4399C24.0292 22.3118 22.8854 23.4002 22.732 24.3574C22.6723 24.7409 22.9365 25.0904 23.3465 25.1696C24.5798 25.4151 26.0654 25.0563 27.3217 24.2108C28.4638 23.4437 28.8934 22.374 28.6002 21.041C28.3164 19.7574 28.9641 18.1636 30.5256 16.3005C30.7812 17.3684 31.1222 18.2318 31.5927 18.9878L31.5799 18.998C30.4429 19.991 28.8848 21.3504 29.1269 22.9996C29.1472 23.1565 29.2 23.3074 29.2819 23.4427C29.3638 23.578 29.473 23.6947 29.6025 23.7855C29.7409 23.8789 29.8972 23.9428 30.0615 23.973C30.2257 24.0032 30.3945 23.9991 30.5571 23.9611C32.0461 23.6483 33.1669 23.0184 33.9817 22.0374C34.7965 21.0564 34.499 19.9688 34.2246 19.125C36.3554 18.5472 38.2526 18.5616 40.0289 19.1676C41.0261 19.5086 41.7412 20.0685 42.1537 20.8416C42.6727 21.8141 42.3923 22.7116 41.3619 23.3687C41.0457 23.5707 40.8931 23.6943 40.8837 23.8503C40.8816 23.8864 40.8883 23.9226 40.9031 23.9557C40.918 23.9888 40.9405 24.0178 40.969 24.0403C41.0883 24.1383 41.4565 24.3088 42.2892 23.7846C43.0563 23.3031 43.5063 22.6476 43.6214 21.8243C43.6445 21.5973 43.6442 21.3685 43.6205 21.1416ZM9.55095 23.2775L9.54243 23.3866C9.40947 24.6344 8.77534 25.7219 7.65455 26.6254C6.95054 27.193 6.18601 27.5416 5.50246 27.6081C5.02516 27.6541 4.67827 27.5894 4.47201 27.4146C4.31774 27.2842 4.23507 27.089 4.21632 26.818C4.07654 24.6463 7.48238 22.4883 9.39924 21.7783C9.53604 22.2655 9.58737 22.7727 9.55095 23.2775ZM18.2744 17.1528C17.959 18.9503 17.0394 22.3434 15.5939 23.6602C15.5248 23.7233 15.4669 23.7454 15.4404 23.7395C15.414 23.7335 15.3936 23.702 15.3723 23.6542C14.8898 22.536 15.068 20.6473 15.7984 19.1634C16.3601 18.0196 17.1621 17.2619 18.0588 17.0326C18.096 17.0223 18.1344 17.0169 18.173 17.0164C18.2032 17.0143 18.2332 17.0224 18.2582 17.0394C18.2687 17.0561 18.2756 17.0748 18.2784 17.0944C18.2812 17.1139 18.2798 17.1338 18.2744 17.1528ZM25.3904 23.7054C25.1185 23.9892 24.746 23.9508 24.8338 23.8468L26.218 22.3775C26.1063 22.8829 25.7765 23.3014 25.3904 23.7054ZM31.1324 22.4346C31.0008 22.4994 30.8583 22.5396 30.7122 22.553C30.673 21.78 31.4222 20.9098 32.1611 20.3293C32.3597 21.1356 31.9532 21.9879 31.1324 22.4346Z" fill="#F8EFD4"/>
</svg>
