<svg width="36" height="40" viewBox="0 0 36 40" fill="none" xmlns="http://www.w3.org/2000/svg">
<path d="M17.716 39.9369C17.166 39.9369 16.652 39.7889 16.172 39.5329L11.294 36.6369C10.564 36.2309 10.93 36.0829 11.15 36.0089C12.142 35.6789 12.326 35.6069 13.352 35.0229C13.464 34.9489 13.61 34.9829 13.722 35.0569L17.462 37.2969C17.61 37.3689 17.794 37.3689 17.904 37.2969L32.542 28.8229C32.69 28.7509 32.762 28.6029 32.762 28.4189V11.5029C32.762 11.3209 32.69 11.1729 32.542 11.1009L17.904 2.66294C17.758 2.58894 17.574 2.58894 17.462 2.66294L2.82 11.0989C2.674 11.1709 2.6 11.3569 2.6 11.5009V28.4149C2.6 28.5609 2.674 28.7469 2.82 28.8189L6.82 31.1329C8.984 32.2289 10.344 30.9429 10.344 29.6629V12.9709C10.344 12.7509 10.526 12.5289 10.784 12.5289H12.656C12.872 12.5289 13.096 12.7129 13.096 12.9709V29.6649C13.096 32.5629 11.52 34.2529 8.768 34.2529C7.924 34.2529 7.264 34.2529 5.392 33.3329L1.542 31.1349C1.07292 30.8622 0.683621 30.4712 0.413024 30.0009C0.142427 29.5306 7.70645e-06 28.9975 0 28.4549V11.5389C0 10.4389 0.586 9.41094 1.542 8.86094L16.174 0.386936C16.649 0.132906 17.1793 0 17.718 0C18.2567 0 18.787 0.132906 19.262 0.386936L33.896 8.86094C34.854 9.40894 35.438 10.4389 35.438 11.5389V28.4549C35.438 29.5529 34.852 30.5809 33.896 31.1349L19.262 39.6069C18.78 39.8269 18.23 39.9369 17.716 39.9369ZM22.228 28.3049C15.808 28.3049 14.488 25.3689 14.488 22.8769C14.488 22.6569 14.672 22.4349 14.928 22.4349H16.836C17.056 22.4349 17.238 22.5809 17.238 22.8029C17.532 24.7449 18.374 25.7009 22.266 25.7009C25.346 25.7009 26.67 25.0009 26.67 23.3509C26.67 22.3969 26.3 21.7009 21.496 21.2249C17.498 20.8249 15.004 19.9389 15.004 16.7489C15.004 13.7789 17.498 12.0169 21.682 12.0169C26.376 12.0169 28.688 13.6349 28.98 17.1529C28.9765 17.2717 28.9375 17.3866 28.868 17.4829C28.794 17.5549 28.686 17.6289 28.576 17.6289H26.67C26.5758 17.6269 26.4849 17.5936 26.4118 17.5342C26.3386 17.4748 26.2873 17.3927 26.266 17.3009C25.824 15.2769 24.688 14.6209 21.682 14.6209C18.304 14.6209 17.9 15.7949 17.9 16.6749C17.9 17.7369 18.374 18.0669 22.928 18.6549C27.44 19.2409 29.568 20.0849 29.568 23.2429C29.528 26.4729 26.89 28.3049 22.228 28.3049Z" fill="#F8EFD4"/>
</svg>
