<svg width="52" height="30" viewBox="0 0 52 30" fill="none" xmlns="http://www.w3.org/2000/svg">
<path d="M51.7026 29.1934C50.9501 29.478 50.1195 29.4774 49.3674 29.1917C48.6154 28.9059 47.9939 28.3548 47.6203 27.6424L40.188 17.3643L39.1109 15.9274L30.4873 27.6553C30.1361 28.3379 29.5484 28.8692 28.8339 29.1499C28.1195 29.4306 27.3272 29.4415 26.6053 29.1805L37.7171 14.2729L27.3808 0.806564C28.1241 0.538734 28.9369 0.535183 29.6824 0.79651C30.4279 1.05784 31.0606 1.56808 31.474 2.24131L39.1777 12.6465L46.9244 2.2844C47.2783 1.61396 47.8662 1.09693 48.5764 0.831615C49.2866 0.566296 50.0695 0.571181 50.7763 0.845341L46.765 6.16855L41.3319 13.241C41.181 13.3756 41.0603 13.5406 40.9776 13.7251C40.895 13.9096 40.8522 14.1095 40.8522 14.3117C40.8522 14.5139 40.895 14.7138 40.9776 14.8983C41.0603 15.0828 41.181 15.2478 41.3319 15.3824L51.6811 29.1956L51.7026 29.1934ZM0.00433439 14.0877L0.90913 9.61755C3.39516 0.77856 13.5289 -2.89879 20.5001 2.57307C24.5824 5.78078 25.6014 10.322 25.4011 15.4405H2.4042C2.03151 24.5811 8.62789 30.1004 17.0619 27.2804C18.4291 26.7883 19.6529 25.9647 20.6237 24.8834C21.5944 23.8021 22.2818 22.4969 22.6242 21.0847C23.0701 19.65 23.8048 19.4044 25.1533 19.818C24.9286 21.5681 24.3099 23.2445 23.3439 24.721C22.3778 26.1975 21.0895 27.4357 19.5759 28.3425C17.0757 29.7101 14.2071 30.2521 11.3802 29.8911C8.5534 29.5301 5.91307 28.2846 3.83679 26.3326C1.78383 24.0219 0.543067 21.103 0.303778 18.0214C0.303778 17.5151 0.131437 17.0412 0.0151058 16.5866C0.00461882 15.7544 -0.000407927 14.9221 2.58433e-05 14.0898L0.00433439 14.0877ZM2.4322 13.4715H23.2296C23.1003 6.845 18.9189 2.14437 13.3414 2.10128C7.13283 2.01511 2.69071 6.61233 2.41712 13.4414L2.4322 13.4715Z" fill="#F8EFD4"/>
</svg>
