<svg width="31" height="30" viewBox="0 0 31 30" fill="none" xmlns="http://www.w3.org/2000/svg">
<path d="M15.3794 0C6.88228 0 0 6.88228 0 15.3794C0 22.1848 4.40235 27.9328 10.5157 29.9706C11.2846 30.1052 11.573 29.6438 11.573 29.2401C11.573 28.8748 11.5538 27.6637 11.5538 26.3757C7.6897 27.087 6.69004 25.4337 6.38245 24.5686C6.20944 24.1264 5.45969 22.7615 4.80606 22.3963C4.26779 22.1079 3.49882 21.3966 4.78684 21.3774C5.99797 21.3582 6.86306 22.4924 7.15142 22.9538C8.53557 25.2799 10.7464 24.6263 11.6307 24.2226C11.7652 23.2229 12.169 22.5501 12.6111 22.1656C9.1892 21.7811 5.61348 20.4546 5.61348 14.572C5.61348 12.8995 6.20944 11.5153 7.18987 10.4388C7.03608 10.0543 6.4978 8.4779 7.34367 6.36323C7.34367 6.36323 8.63169 5.95952 11.573 7.93962C12.8034 7.59358 14.1106 7.42056 15.4179 7.42056C16.7251 7.42056 18.0324 7.59358 19.2627 7.93962C22.204 5.9403 23.492 6.36323 23.492 6.36323C24.3379 8.4779 23.7996 10.0543 23.6458 10.4388C24.6263 11.5153 25.2222 12.8803 25.2222 14.572C25.2222 20.4738 21.6273 21.7811 18.2054 22.1656C18.7629 22.6462 19.2435 23.5689 19.2435 25.0108C19.2435 27.0678 19.2243 28.721 19.2243 29.2401C19.2243 29.6438 19.5126 30.1244 20.2816 29.9706C23.3348 28.9402 25.988 26.9781 27.8675 24.3605C29.7471 21.743 30.7583 18.6019 30.7588 15.3794C30.7588 6.88228 23.8765 0 15.3794 0Z" fill="#F8EFD4"/>
</svg>
