<svg width="48" height="21" viewBox="0 0 48 21" fill="none" xmlns="http://www.w3.org/2000/svg">
<path d="M32.428 0L32.278 0.782C32.046 2.264 32.13 2.688 32.766 3.238L33.38 3.746L32.744 6.582C32.364 8.274 31.898 9.692 31.602 10.158C31.348 10.56 31.052 11.152 30.988 11.47C30.882 11.85 30.522 12.232 29.972 12.57C29.486 12.846 28.532 13.586 27.856 14.18C27.316 14.666 26.944 14.964 26.742 15.092L26.082 15.614C25.9123 15.8657 25.7846 16.1433 25.704 16.436C25.658 16.65 25.684 16.792 25.752 16.896C25.818 16.996 25.932 17.066 26.088 17.11C26.2727 17.1533 26.4628 17.1688 26.652 17.156C27.0801 17.1267 27.5039 17.0517 27.916 16.932C28.056 16.894 28.166 16.858 28.262 16.826C28.41 16.644 28.752 16.3 29.358 15.702C30.966 14.116 31.58 13.248 30.946 13.482C30.712 13.566 30.818 13.354 31.22 12.93C32.068 12.104 32.554 10.856 33.57 6.942C34.374 3.852 34.374 3.808 34.966 3.808C35.244 3.808 36.03 3.856 36.03 3.856V0H34.226H32.428ZM40.106 6.33C39.978 6.33 39.766 6.522 39.64 6.734C39.408 7.114 39.682 7.346 43.174 9.526C45.248 10.84 46.92 11.96 46.878 12.046C46.836 12.108 45.142 13.21 43.112 14.48C39.428 16.764 39.408 16.786 39.746 17.252C40.17 17.802 39.746 17.992 44.528 15.008L48 12.786V11.114L44.126 8.722C42.032 7.41 40.212 6.352 40.106 6.33ZM7.936 6.564C7.83 6.564 6.01 7.644 3.916 8.934L0 11.326V12.998L3.894 15.432C6.054 16.764 7.874 17.866 7.958 17.866C8.042 17.866 8.212 17.674 8.382 17.442C8.636 17.04 8.422 16.87 4.846 14.606C1.44 12.468 1.08 12.172 1.42 11.94C1.632 11.792 3.24 10.796 4.976 9.718C8.934 7.284 8.722 7.452 8.404 6.944C8.278 6.734 8.064 6.544 7.938 6.564H7.936ZM25.304 6.61C24.72 6.606 23.464 7.496 19.704 10.566C19.542 10.952 19.528 11.218 19.602 11.39C19.65 11.508 19.738 11.59 19.86 11.65C19.98 11.71 20.136 11.746 20.308 11.76C20.65 11.79 21.054 11.736 21.38 11.672L21.6 11.622C21.6753 11.521 21.7742 11.44 21.888 11.386C22.12 11.258 23.094 10.37 24.068 9.418C25.782 7.682 26.184 6.898 25.486 6.644C25.4287 6.62122 25.3676 6.60967 25.306 6.61H25.304ZM29.696 7.816C29.182 7.83 28.256 8.426 26.67 9.692C25.874 10.338 25.37 10.686 25.1 10.758L24.052 11.586C23.658 12.306 23.6 12.752 23.704 12.998C23.73 13.0587 23.7678 13.1136 23.8152 13.1596C23.8626 13.2056 23.9186 13.2418 23.98 13.266C24.1328 13.3263 24.2957 13.3569 24.46 13.356C24.8526 13.3518 25.2428 13.2946 25.62 13.186C25.8166 13.1332 26.0108 13.0718 26.202 13.002L26.26 12.978L26.366 12.922C26.566 12.664 27.026 12.178 27.602 11.618C29.422 9.862 30.352 8.614 30.162 8.148C30.076 7.922 29.928 7.808 29.696 7.816ZM24.848 9.976C24.7 9.992 24.368 10.248 23.77 10.772C22.906 11.536 21.964 11.976 21.638 11.78C21.5622 11.7971 21.4862 11.8131 21.41 11.828C21.078 11.894 20.664 11.948 20.294 11.918C20.1197 11.9074 19.9488 11.8647 19.79 11.792C19.6402 11.7235 19.5207 11.6026 19.454 11.452C19.38 11.272 19.38 11.048 19.464 10.762L18.164 11.83L15.222 14.264V18.21L24.862 10.616C24.8601 10.5329 24.8709 10.4499 24.894 10.37C24.968 10.102 24.964 9.966 24.848 9.978V9.976ZM28.996 11.254C28.85 11.254 28.606 11.46 28.216 11.874C27.686 12.44 26.852 12.988 26.41 13.1L26.342 13.136C26.2694 13.166 26.1961 13.194 26.122 13.22C26.002 13.26 25.846 13.308 25.666 13.356C25.306 13.454 24.858 13.544 24.458 13.534C24.2694 13.5338 24.0827 13.4971 23.908 13.426C23.7434 13.3581 23.6115 13.2291 23.54 13.066C23.424 12.788 23.47 12.398 23.724 11.844L15.22 18.542V20.952H18.956L26.88 14.728C27.086 14.5 27.396 14.188 27.814 13.798C28.934 12.76 29.188 12.402 29.188 11.872C29.188 11.46 29.142 11.252 28.996 11.252V11.254ZM30.882 15.154L30.204 15.83C29.824 16.19 29.146 16.634 28.682 16.824L28.59 16.864L28.584 16.874L28.564 16.894C28.546 16.908 28.538 16.91 28.524 16.916C28.3388 16.9861 28.1506 17.0482 27.96 17.102C27.5362 17.2253 27.1004 17.3025 26.66 17.332C26.4518 17.3453 26.2428 17.3271 26.04 17.278C25.864 17.2393 25.7087 17.1366 25.604 16.99C25.508 16.842 25.48 16.644 25.534 16.4C25.577 16.2263 25.6407 16.0584 25.724 15.9L19.33 20.952H27.834L28.85 19.788C30.246 18.16 30.882 16.996 30.882 16V15.154Z" fill="#F8EFD4"/>
</svg>
