<svg width="31" height="30" viewBox="0 0 31 30" fill="none" xmlns="http://www.w3.org/2000/svg">
<path d="M13.5 13.3718C13.3718 12.9744 13.2564 12.5897 13.1282 12.1923C13 11.7949 12.8846 11.4231 12.7821 11.0513C12.6795 10.6923 12.5897 10.359 12.5 10.0513H12.4744C12.359 10.6026 12.2179 11.1538 12.0385 11.7051C11.8462 12.3205 11.6538 12.9615 11.4487 13.6026C11.2692 14.2564 11.0769 14.859 10.8846 15.3974H14.141C14.0641 15.1269 13.9615 14.8077 13.8462 14.4731C13.7308 14.1282 13.6154 13.7564 13.5 13.3718ZM25.3205 0H5.44872C2.4359 0 0 2.4359 0 5.44872V24.5513C0 27.5641 2.4359 30 5.44872 30H25.3205C28.3333 30 30.7692 27.5641 30.7692 24.5513V5.44872C30.7692 2.4359 28.3333 0 25.3205 0ZM18.8462 21.1923H16.1654C16.0769 21.2051 15.9872 21.141 15.9615 21.0513L14.9103 18H10.141L9.16667 21.0128C9.14103 21.1282 9.03846 21.2051 8.92308 21.1936H6.51282C6.37179 21.1936 6.33333 21.1154 6.37179 20.9628L10.5 9.07692C10.5385 8.94872 10.5769 8.80769 10.6282 8.65385C10.6795 8.38461 10.7051 8.10256 10.7051 7.82051C10.6923 7.75641 10.7436 7.69231 10.8077 7.67949H14.1282C14.2308 7.67949 14.2821 7.71795 14.2949 7.78205L18.9744 20.9872C19.0128 21.1269 18.9744 21.1923 18.8462 21.1923ZM23.2051 21C23.2051 21.141 23.1551 21.2051 23.0397 21.2051H20.5256C20.3974 21.2051 20.3333 21.1269 20.3333 21V11.1282C20.3333 11 20.3859 10.9487 20.5013 10.9487H23.0397C23.1551 10.9487 23.2051 11.0128 23.2051 11.1282V21ZM22.9372 9.42308C22.7858 9.57685 22.6032 9.69644 22.4018 9.77384C22.2003 9.85123 21.9846 9.88463 21.7692 9.87179C21.3462 9.88461 20.9359 9.71795 20.6269 9.42308C20.3332 9.10191 20.1767 8.67859 20.191 8.24359C20.1782 7.80769 20.3449 7.39744 20.6513 7.10256C20.9615 6.80769 21.3718 6.65385 21.7949 6.65385C22.2962 6.65385 22.6782 6.80769 22.9615 7.10256C23.2436 7.41026 23.3974 7.82051 23.3846 8.24359C23.3974 8.67949 23.2436 9.10256 22.9372 9.42308Z" fill="#F8EFD4"/>
</svg>
