<svg width="21" height="30" viewBox="0 0 21 30" fill="none" xmlns="http://www.w3.org/2000/svg">
<path d="M15.0059 10.002C16.3322 10.002 17.6042 9.47507 18.5421 8.5372C19.4799 7.59934 20.0068 6.32732 20.0068 5.00098C20.0068 3.67464 19.4799 2.40262 18.5421 1.46475C17.6042 0.526887 16.3322 0 15.0059 0L5.00391 0C3.67834 0 2.40707 0.526578 1.46975 1.46389C0.532439 2.40121 0.00586073 3.67248 0.00586073 4.99805C0.00586073 6.32361 0.532439 7.59488 1.46975 8.5322C2.40707 9.46952 3.67834 9.99609 5.00391 9.99609C3.67757 9.99609 2.40555 10.523 1.46768 11.4608C0.529818 12.3987 0.00293109 13.6707 0.00293109 14.9971C0.00293109 16.3234 0.529818 17.5954 1.46768 18.5333C2.40555 19.4712 3.67757 19.998 5.00391 19.998C4.01481 19.9975 3.04775 20.2902 2.22502 20.8392C1.40229 21.3883 0.760848 22.1689 0.381801 23.0825C0.00275348 23.9961 -0.0968715 25.0016 0.095524 25.9718C0.287919 26.942 0.763694 27.8334 1.46268 28.5332C2.16167 29.233 3.05248 29.7098 4.02246 29.9033C4.99244 30.0969 5.99803 29.9984 6.91206 29.6204C7.82609 29.2425 8.60751 28.6019 9.15751 27.7799C9.70751 26.9578 10.0014 25.9911 10.002 25.002V10.002H15.0059ZM15.0059 10.002C14.0173 10.002 13.051 10.2951 12.2291 10.8443C11.4072 11.3935 10.7666 12.1741 10.3883 13.0873C10.01 14.0006 9.911 15.0055 10.1039 15.9751C10.2967 16.9446 10.7727 17.8352 11.4717 18.5342C12.1707 19.2331 13.0613 19.7092 14.0308 19.902C15.0003 20.0949 16.0053 19.9959 16.9185 19.6176C17.8318 19.2393 18.6124 18.5987 19.1616 17.7768C19.7108 16.9548 20.0039 15.9885 20.0039 15C20.0038 13.6745 19.4771 12.4033 18.5398 11.466C17.6026 10.5287 16.3314 10.0021 15.0059 10.002Z" fill="#F8EFD4"/>
</svg>
