<svg width="30" height="37" viewBox="0 0 30 37" fill="none" xmlns="http://www.w3.org/2000/svg">
<path d="M15.7649 0C15.5297 0 15.2869 0.0121387 15.0366 0.0318642C8.62426 0.537139 10.3252 7.32573 10.2266 9.58809C10.1113 11.245 9.77137 12.5515 8.63337 14.1705C7.29052 15.7652 5.40598 18.3432 4.51226 21.0304C4.09044 22.2928 3.89015 23.5856 4.07679 24.807C4.00758 24.863 3.95074 24.9328 3.90988 25.0119C3.51537 25.4185 3.22707 25.9223 2.90388 26.2849C2.60193 26.5869 2.16797 26.6901 1.69456 26.8919C1.21963 27.0982 0.696145 27.3 0.383572 27.9237C0.247011 28.2104 0.177213 28.5215 0.183282 28.8371C0.183282 29.1391 0.224251 29.444 0.266736 29.6504C0.354742 30.2558 0.442748 30.755 0.32743 31.1222C-0.0503884 32.154 -0.097426 32.8596 0.166592 33.374C0.430609 33.8808 0.97837 34.0871 1.59289 34.2859C2.82194 34.5894 4.49102 34.4907 5.802 35.1963C7.20706 35.9034 8.63337 36.2129 9.77137 35.9094C10.5695 35.7334 11.2432 35.2054 11.6043 34.474C12.495 34.4695 13.4707 34.0659 15.0335 33.9672C16.0941 33.8792 17.4218 34.3724 18.9437 34.2707C18.9816 34.474 19.0393 34.5711 19.1167 34.776L19.1212 34.7805C19.7145 35.961 20.81 36.4982 21.9799 36.4056C23.1498 36.3146 24.3955 35.5923 25.4046 34.424C26.362 33.2632 27.9583 32.7792 29.0128 32.1434C29.5408 31.8414 29.9672 31.4318 29.9976 30.8491C30.0325 30.2422 29.6941 29.6185 28.9142 28.7612V28.6141L28.9096 28.6095C28.6517 28.306 28.5303 27.7977 28.3968 27.2044C28.2678 26.596 28.1206 26.0118 27.6502 25.6173H27.6457C27.5562 25.5354 27.459 25.5156 27.3604 25.4125C27.2756 25.3532 27.1755 25.3195 27.0721 25.3154C27.7261 23.3762 27.4727 21.4461 26.8096 19.7103C26.0009 17.5708 24.5867 15.7075 23.5094 14.4254C22.3016 12.9005 21.1181 11.4559 21.1423 9.31497C21.1818 6.04965 21.5004 0.00910406 15.7649 0V0ZM16.5676 5.16655H16.5873C16.9105 5.16655 17.1881 5.26063 17.4734 5.46699C17.7617 5.67183 17.9741 5.97075 18.138 6.27573C18.2973 6.66872 18.3777 6.97219 18.3899 7.37429C18.3899 7.34394 18.399 7.31359 18.399 7.28325V7.44257C18.3956 7.43224 18.3936 7.42154 18.3929 7.4107L18.3868 7.37429C18.3838 7.74304 18.3064 8.10739 18.1592 8.44553C18.0884 8.63578 17.9783 8.80897 17.8361 8.95384C17.7931 8.92956 17.7484 8.90827 17.7025 8.89011C17.5447 8.82183 17.4021 8.793 17.2716 8.68831C17.1635 8.64523 17.0518 8.61172 16.9378 8.58816C17.0137 8.49712 17.1593 8.38636 17.2155 8.28773C17.2959 8.09351 17.3399 7.88715 17.349 7.67776V7.64741C17.3524 7.44134 17.3211 7.23616 17.2564 7.04047C17.1881 6.83715 17.1032 6.737 16.9788 6.5352C16.8513 6.43505 16.7254 6.33491 16.5736 6.33491H16.5493C16.4082 6.33491 16.2823 6.38043 16.1518 6.5352C16.0077 6.67573 15.9008 6.84988 15.8407 7.04199C15.7602 7.23478 15.7139 7.4402 15.7042 7.64893V7.67776C15.7072 7.8128 15.7163 7.94936 15.7345 8.08289C15.4417 7.98123 15.0699 7.87805 14.8135 7.77638C14.7982 7.67588 14.7891 7.57454 14.7862 7.47292V7.44257C14.7743 7.04202 14.852 6.64387 15.0138 6.27725C15.1378 5.94403 15.3668 5.66017 15.6663 5.4685C15.9256 5.27191 16.2421 5.16536 16.5676 5.16504V5.16655ZM12.0732 5.25608H12.1278C12.3433 5.25608 12.5375 5.32891 12.7332 5.46092C12.9548 5.65666 13.1338 5.89791 13.2552 6.16648C13.3918 6.46843 13.4676 6.77342 13.4873 7.17855V7.18462C13.498 7.38794 13.4965 7.48809 13.4843 7.58823V7.70962C13.4388 7.72024 13.3993 7.73693 13.3584 7.74604C13.1277 7.82949 12.9426 7.95088 12.7621 8.04951C12.7803 7.91294 12.7818 7.77638 12.7666 7.64438V7.62161C12.7484 7.41981 12.7059 7.31815 12.6422 7.11634C12.5949 6.9617 12.5081 6.82206 12.3903 6.71121C12.3529 6.6772 12.3091 6.65108 12.2614 6.6344C12.2136 6.61771 12.1631 6.61081 12.1126 6.6141H12.0808C11.973 6.6232 11.8835 6.67479 11.7985 6.81439C11.7018 6.93187 11.6388 7.0735 11.6165 7.22407C11.5754 7.38762 11.5636 7.55713 11.5816 7.72479V7.74755C11.5998 7.9524 11.6377 8.05102 11.703 8.25435C11.7727 8.45767 11.8517 8.55782 11.9548 8.661C11.97 8.67465 11.9852 8.68831 12.0064 8.69741C11.9002 8.7839 11.8289 8.80363 11.7394 8.90377C11.6826 8.95397 11.6143 8.98941 11.5406 9.00695C11.3829 8.81702 11.2432 8.61282 11.1233 8.39698C10.9799 8.07812 10.9 7.73435 10.8881 7.38491C10.863 7.04238 10.9042 6.69823 11.0095 6.37132C11.0931 6.07319 11.2395 5.7964 11.4389 5.55955C11.6332 5.35774 11.8334 5.25608 12.0732 5.25608V5.25608ZM14.1519 7.84466C14.6557 7.84466 15.2642 7.94329 15.997 8.45008C16.4416 8.75355 16.7906 8.85825 17.5933 9.1602H17.5978C17.9848 9.36656 18.2124 9.56381 18.3231 9.76562V9.56685C18.3776 9.67718 18.4079 9.79784 18.4121 9.92081C18.4163 10.0438 18.3942 10.1662 18.3474 10.28C18.1608 10.7504 17.5644 11.2557 16.7345 11.5576V11.5606C16.3278 11.7655 15.9743 12.0659 15.5585 12.2662C15.1397 12.471 14.6663 12.7093 14.023 12.6713C13.7919 12.6833 13.5607 12.6487 13.3432 12.5697C13.1751 12.4782 13.0121 12.3779 12.8546 12.2692C12.5587 12.0644 12.3038 11.7655 11.926 11.5637V11.5561H11.9184C11.3115 11.1828 10.9837 10.7792 10.8775 10.4788C10.7713 10.0721 10.8699 9.76562 11.1704 9.56837C11.5102 9.36353 11.747 9.15717 11.9032 9.05854C12.061 8.94625 12.1202 8.90377 12.1703 8.85977H12.1733V8.85521C12.4298 8.54871 12.8349 8.14206 13.4464 7.94329C13.6573 7.88867 13.8925 7.84466 14.1535 7.84466H14.1519ZM18.4005 11.0948C18.9437 13.2449 20.2152 16.3676 21.0331 17.8819C21.4671 18.6922 22.3304 20.3992 22.7052 22.4703C22.9419 22.4627 23.2059 22.4976 23.4836 22.5674C24.4638 20.032 22.6551 17.3068 21.8312 16.5497C21.4974 16.2462 21.4792 16.0414 21.6446 16.0414C22.5398 16.8516 23.7158 18.4266 24.1421 20.2247C24.3394 21.0364 24.3849 21.8998 24.174 22.7586C24.2757 22.8011 24.3788 22.8497 24.485 22.8603C26.0509 23.6706 26.6291 24.2836 26.3514 25.1924V25.1272C26.2603 25.1226 26.1693 25.1272 26.0783 25.1272H26.054C26.2831 24.4186 25.7778 23.8754 24.438 23.27C23.0496 22.663 21.9405 22.7601 21.7523 23.9755C21.7402 24.0408 21.7326 24.0757 21.725 24.1804C21.6218 24.2153 21.5141 24.2608 21.4079 24.2775C20.7554 24.6841 20.4034 25.2926 20.2046 26.0786C20.0074 26.8873 19.9467 27.8326 19.8936 28.9145V28.919C19.8632 29.4258 19.6356 30.1906 19.4095 30.9675C17.1335 32.594 13.9774 33.3011 11.2948 31.4742C11.1264 31.18 10.9215 30.9082 10.6848 30.6655C10.5717 30.4772 10.4311 30.3069 10.2675 30.1602C10.5437 30.1602 10.7804 30.1147 10.9731 30.0586C11.1913 29.9574 11.362 29.7758 11.4496 29.5518C11.6134 29.1466 11.4496 28.4942 10.9261 27.7871C10.4026 27.0785 9.51343 26.2773 8.21306 25.4792C7.25714 24.8723 6.71696 24.1591 6.46812 23.361C6.21776 22.5508 6.25114 21.7147 6.44536 20.865C6.81711 19.2414 7.77 17.6634 8.37845 16.6726C8.54081 16.5739 8.43459 16.8774 7.75938 18.1505C7.15851 19.29 6.02961 21.9393 7.57426 23.9983C7.63261 22.496 7.96533 21.017 8.55598 19.6344C9.41176 17.6953 11.2007 14.3177 11.3418 11.6411C11.4147 11.6957 11.6711 11.8459 11.7803 11.9476C12.1111 12.1494 12.3569 12.4528 12.6756 12.6531C12.9942 12.9581 13.3993 13.1614 14.0048 13.1614C14.0639 13.166 14.1186 13.1705 14.1717 13.1705C14.7968 13.1705 15.2793 12.9672 15.6845 12.7639C16.1245 12.5606 16.4735 12.2571 16.8073 12.157H16.8149C17.5235 11.9521 18.0819 11.547 18.399 11.0948H18.4005ZM21.7159 24.6872C21.772 25.5976 22.2363 26.5763 23.0542 26.7766C23.9464 26.9799 25.2301 26.2713 25.7718 25.6158L26.0919 25.6006C26.5699 25.59 26.9674 25.6158 27.3771 26.0073L27.3817 26.0118C27.6973 26.3138 27.8444 26.816 27.9749 27.341C28.1039 27.9479 28.2086 28.5245 28.5955 28.9585C29.333 29.7581 29.5742 30.3332 29.5606 30.6883L29.5651 30.6776V30.705L29.5606 30.6867C29.5378 31.0843 29.2799 31.2876 28.8049 31.5896C27.849 32.198 26.1556 32.6699 25.0768 33.9718C24.1391 35.0901 22.9981 35.7016 21.9875 35.779C20.98 35.8594 20.1106 35.4755 19.5992 34.4164L19.5916 34.4118C19.273 33.8049 19.4095 32.8565 19.6766 31.8475C19.9436 30.8339 20.326 29.8082 20.3791 28.9691C20.4353 27.8857 20.4944 26.9435 20.675 26.2167C20.8571 25.5111 21.1423 25.0073 21.6476 24.7236L21.7159 24.6902V24.6872ZM5.30735 24.7615H5.32252C5.40294 24.7615 5.48184 24.7691 5.56075 24.7828C6.13127 24.8662 6.63199 25.288 7.11299 25.9238L8.49377 28.4487L8.49832 28.4532C8.86704 29.262 9.6424 30.0677 10.3024 30.9371C10.961 31.8445 11.4708 32.6532 11.4086 33.3193V33.3284C11.3221 34.4573 10.6803 35.0704 9.70158 35.2919C8.72289 35.4967 7.39521 35.2949 6.06754 34.5878C4.59875 33.7745 2.85381 33.8762 1.73249 33.6744C1.17259 33.5743 0.806911 33.3709 0.635451 33.0675C0.468543 32.764 0.463991 32.154 0.822084 31.2011V31.1951L0.825119 31.1905C1.00265 30.6837 0.870639 30.0495 0.784151 29.4941C0.700697 28.8857 0.658211 28.4168 0.849396 28.0678C1.09217 27.561 1.45026 27.4609 1.89636 27.2591C2.34246 27.0542 2.86746 26.9526 3.28473 26.5459H3.28777V26.5429C3.67621 26.1362 3.96298 25.631 4.30135 25.2714C4.58965 24.9664 4.87794 24.7615 5.30735 24.7615V24.7615ZM16.17 10.9932C15.51 11.2981 14.7361 11.8049 13.9122 11.8049C13.0898 11.8049 12.4404 11.3998 11.97 11.0978C11.7363 10.8945 11.5451 10.6912 11.404 10.5895C11.1552 10.3862 11.1855 10.0843 11.2918 10.0843C11.4571 10.1085 11.4875 10.2876 11.5937 10.3877C11.7394 10.4879 11.9199 10.6912 12.1399 10.893C12.583 11.1965 13.1717 11.6016 13.9107 11.6016C14.6466 11.6016 15.5084 11.1965 16.0319 10.8945C16.3278 10.6897 16.7071 10.3877 17.0152 10.1859C17.2519 9.97957 17.2413 9.78079 17.4385 9.78079C17.6327 9.80507 17.4901 9.98412 17.2155 10.2846C16.8789 10.5391 16.5294 10.7761 16.1685 10.9947L16.17 10.9932ZM14.5282 8.5912V8.55782C14.5191 8.52747 14.548 8.49409 14.5722 8.48195C14.6845 8.4167 14.8454 8.44098 14.9668 8.48802C15.0623 8.48802 15.2095 8.58968 15.1944 8.69286C15.1853 8.76721 15.0654 8.793 14.9895 8.793C14.9061 8.793 14.8499 8.72776 14.7756 8.68982C14.6967 8.66251 14.554 8.67769 14.5282 8.5912ZM13.6922 8.5912C13.6618 8.6792 13.5207 8.66555 13.4403 8.69134C13.369 8.72928 13.3098 8.79452 13.2279 8.79452C13.152 8.79452 13.0306 8.76417 13.0215 8.69134C13.0063 8.5912 13.155 8.48953 13.2491 8.48953C13.3705 8.4425 13.5283 8.41822 13.6421 8.48195C13.6709 8.4956 13.6967 8.52747 13.6876 8.55782V8.58816H13.6922V8.5912Z" fill="#F8EFD4"/>
</svg>
