<svg width="49" height="48" viewBox="0 0 49 48" fill="none" xmlns="http://www.w3.org/2000/svg">
<path d="M24.4444 0C10.9389 0 0 11.0117 0 24.6071C0 35.4957 6.99722 44.6926 16.7139 47.953C17.9361 48.1683 18.3944 47.4301 18.3944 46.7842C18.3944 46.1997 18.3639 44.2619 18.3639 42.2011C12.2222 43.3392 10.6333 40.6939 10.1444 39.3098C9.86944 38.6023 8.67778 36.4184 7.63889 35.834C6.78333 35.3726 5.56111 34.2346 7.60833 34.2038C9.53333 34.173 10.9083 35.9878 11.3667 36.726C13.5667 40.4478 17.0806 39.402 18.4861 38.7561C18.7 37.1566 19.3417 36.0801 20.0444 35.4649C14.6056 34.8497 8.92222 32.7274 8.92222 23.3152C8.92222 20.6392 9.86944 18.4245 11.4278 16.702C11.1833 16.0869 10.3278 13.5646 11.6722 10.1812C11.6722 10.1812 13.7194 9.53523 18.3944 12.7034C20.35 12.1497 22.4278 11.8729 24.5056 11.8729C26.5833 11.8729 28.6611 12.1497 30.6167 12.7034C35.2917 9.50447 37.3389 10.1812 37.3389 10.1812C38.6833 13.5646 37.8278 16.0869 37.5833 16.702C39.1417 18.4245 40.0889 20.6084 40.0889 23.3152C40.0889 32.7581 34.375 34.8497 28.9361 35.4649C29.8222 36.2339 30.5861 37.7103 30.5861 40.0172C30.5861 43.3084 30.5556 45.9537 30.5556 46.7842C30.5556 47.4301 31.0139 48.1991 32.2361 47.953C37.089 46.3043 41.306 43.1649 44.2934 38.9768C47.2808 34.7888 48.888 29.763 48.8889 24.6071C48.8889 11.0117 37.95 0 24.4444 0Z" fill="white"/>
</svg>
