<svg width="30" height="30" viewBox="0 0 30 30" fill="none" xmlns="http://www.w3.org/2000/svg">
<path d="M0 0H30V30H0V0ZM27.5425 22.845C27.3238 21.4762 26.4325 20.3263 23.7887 19.2537C22.8687 18.8225 21.8462 18.5225 21.5425 17.8287C21.4287 17.4163 21.4112 17.1912 21.485 16.9475C21.6725 16.14 22.6287 15.8975 23.3787 16.1225C23.8662 16.2725 24.3163 16.6475 24.5988 17.2475C25.8913 16.4025 25.8913 16.4025 26.7925 15.8413C26.455 15.3163 26.2875 15.09 26.06 14.8662C25.2725 13.985 24.2237 13.535 22.5175 13.5738L21.6362 13.685C20.7913 13.8912 19.9862 14.3413 19.4988 14.9412C18.0737 16.555 18.485 19.3675 20.21 20.53C21.9162 21.805 24.4113 22.085 24.73 23.2862C25.03 24.7487 23.6425 25.2175 22.2725 25.0487C21.2588 24.8237 20.6975 24.3162 20.0788 23.3787L17.7913 24.6925C18.0537 25.2925 18.3538 25.5538 18.8038 26.0788C20.9788 28.2738 26.4163 28.1612 27.3925 24.8237C27.4287 24.7112 27.6925 23.9425 27.485 22.7612L27.5425 22.845ZM16.3137 13.7887H13.5038C13.5038 16.2113 13.4925 18.6188 13.4925 21.045C13.4925 22.585 13.5712 23.9988 13.32 24.4338C12.9075 25.295 11.845 25.185 11.3625 25.0338C10.8675 24.7887 10.6163 24.4513 10.325 23.965C10.2463 23.8338 10.1875 23.72 10.1663 23.72L7.885 25.1262C8.26625 25.9137 8.8225 26.5912 9.54 27.0225C10.6088 27.66 12.045 27.8663 13.5487 27.5288C14.5275 27.2463 15.3712 26.665 15.8125 25.765C16.45 24.6025 16.315 23.1775 16.3088 21.5825C16.3237 19.015 16.3088 16.4462 16.3088 13.8587L16.3137 13.7887Z" fill="#F8EFD4"/>
</svg>
