<svg width="31" height="30" viewBox="0 0 31 30" fill="none" xmlns="http://www.w3.org/2000/svg">
<path d="M29.4386 13.662L16.3383 0.564676C15.975 0.203032 15.4832 0 14.9706 0C14.458 0 13.9663 0.203032 13.603 0.564676L10.8887 3.28197L14.3382 6.73298C14.7452 6.59546 15.1826 6.57474 15.6007 6.67318C16.0189 6.77161 16.4011 6.98526 16.704 7.28989C17.0069 7.59452 17.2184 7.97793 17.3145 8.39665C17.4105 8.81536 17.3874 9.25262 17.2475 9.65883L20.5695 12.9853C21.0613 12.8127 21.5972 12.8127 22.0891 12.9851C22.581 13.1576 22.9995 13.4923 23.2759 13.9342C23.5523 14.3761 23.6701 14.8989 23.6099 15.4166C23.5497 15.9344 23.3151 16.4162 22.9447 16.7829C22.0459 17.6832 20.595 17.6832 19.6947 16.7829C19.375 16.4628 19.1565 16.0556 19.0666 15.6122C18.9767 15.1687 19.0193 14.7086 19.1891 14.2892L16.0772 11.1938V19.3517C16.2963 19.4582 16.5063 19.6052 16.6879 19.7868C17.1169 20.2188 17.3576 20.8029 17.3576 21.4118C17.3576 22.0206 17.1169 22.6047 16.6879 23.0367C16.4738 23.2511 16.2196 23.4212 15.9397 23.5373C15.6599 23.6533 15.3599 23.7131 15.0569 23.7131C14.7539 23.7131 14.4539 23.6533 14.1741 23.5373C13.8942 23.4212 13.64 23.2511 13.4259 23.0367C13.2123 22.8238 13.0429 22.5707 12.9272 22.2921C12.8116 22.0136 12.7521 21.7149 12.7521 21.4133C12.7521 21.1116 12.8116 20.813 12.9272 20.5344C13.0429 20.2558 13.2123 20.0028 13.4259 19.7898C13.654 19.5647 13.9091 19.3937 14.1821 19.2811V11.0437C13.9016 10.9289 13.6466 10.7596 13.4319 10.5456C13.2172 10.3316 13.047 10.0771 12.9312 9.79699C12.8154 9.51683 12.7563 9.2165 12.7572 8.91336C12.7582 8.61022 12.8192 8.31027 12.9368 8.03085L9.54579 4.62336L0.562664 13.599C-0.187555 14.3552 -0.187555 15.5796 0.562664 16.3358L13.663 29.4331C13.8422 29.6128 14.0552 29.7554 14.2896 29.8526C14.524 29.9499 14.7753 30 15.0291 30C15.2829 30 15.5343 29.9499 15.7687 29.8526C16.0031 29.7554 16.216 29.6128 16.3953 29.4331L29.4341 16.3958C29.6147 16.217 29.7581 16.0043 29.8561 15.7699C29.9541 15.5354 30.0048 15.2839 30.0052 15.0298C30.0057 14.7757 29.9558 14.5241 29.8586 14.2893C29.7613 14.0546 29.6186 13.8414 29.4386 13.662Z" fill="#F8EFD4"/>
</svg>
